<svg xmlns="http://www.w3.org/2000/svg" viewBox="0 0 480 240" fill="none">
  <defs><linearGradient id="g" x1="0" y1="0" x2="480" y2="240"><stop stop-color="#F5FBF4"/><stop offset="1" stop-color="#EAF7ED"/></linearGradient></defs>
  <rect width="480" height="240" rx="24" fill="url(#g)"/>
  <circle cx="78" cy="52" r="28" fill="#FFF1D7"/>
  <path d="M0 198C69 165 120 210 191 186C260 163 287 110 359 118C395 122 431 144 480 130V240H0V198Z" fill="#D1EBD6"/>
  <circle cx="185" cy="120" r="62" fill="#fff" stroke="#1B7E3B" stroke-width="4"/>
  <circle cx="185" cy="120" r="6" fill="#1B7E3B"/>
  <path d="M185 120L185 86" stroke="#1B7E3B" stroke-width="6" stroke-linecap="round"/>
  <path d="M185 120L217 137" stroke="#F28A19" stroke-width="6" stroke-linecap="round"/>
  <path d="M185 60V70M185 170V180M125 120H135M235 120H245M143 78L150 85M227 155L234 162M227 85L234 78M143 162L150 155" stroke="#83B98F" stroke-width="4" stroke-linecap="round"/>
  <rect x="280" y="68" width="108" height="88" rx="16" fill="#fff" stroke="#1B7E3B" stroke-width="4"/>
  <rect x="280" y="68" width="108" height="24" rx="12" fill="#1B7E3B"/>
  <path d="M302 56V78" stroke="#1B7E3B" stroke-width="8" stroke-linecap="round"/>
  <path d="M366 56V78" stroke="#1B7E3B" stroke-width="8" stroke-linecap="round"/>
  <path d="M298 105H370" stroke="#E6F1E9"/>
  <path d="M298 123H370" stroke="#E6F1E9"/>
  <path d="M316 98V142" stroke="#E6F1E9"/>
  <path d="M334 98V142" stroke="#E6F1E9"/>
  <path d="M352 98V142" stroke="#E6F1E9"/>
  <rect x="334" y="105" width="18" height="18" rx="6" fill="#F5A524"/>
</svg>