<svg width="640" height="420" viewBox="0 0 640 420" fill="none" xmlns="http://www.w3.org/2000/svg">
  <rect width="640" height="420" rx="42" fill="#F7FFF8"/>
  <circle cx="548" cy="82" r="88" fill="#F6C65B" opacity=".22"/>
  <circle cx="112" cy="345" r="104" fill="#087735" opacity=".10"/>
  <rect x="70" y="52" width="500" height="316" rx="28" fill="white" stroke="#BFD8C8" stroke-width="4"/>
  <g stroke="#2B4A35" stroke-width="3">
    <path d="M195 52V368M320 52V368M445 52V368"/>
    <path d="M70 131H570M70 210H570M70 289H570"/>
  </g>
  <rect x="196" y="132" width="248" height="156" rx="18" fill="#FBFFF7" stroke="#087735" stroke-width="3"/>
  <path d="M230 252 318 158 410 252" stroke="#EFAD32" stroke-width="4" stroke-linecap="round" stroke-linejoin="round" opacity=".72"/>
  <path d="M232 170 320 256 408 170" stroke="#087735" stroke-width="4" stroke-linecap="round" stroke-linejoin="round" opacity=".68"/>
  <circle cx="320" cy="210" r="42" fill="#EAF8EE" stroke="#087735" stroke-width="3"/>
  <path d="M320 174a36 36 0 1 0 0 72 18 18 0 1 0 0-36 18 18 0 1 1 0-36Z" fill="#087735"/>
  <circle cx="320" cy="192" r="6" fill="white"/>
  <circle cx="320" cy="228" r="6" fill="#087735"/>
  <g font-family="Arial, sans-serif" font-size="24" font-weight="800" fill="#087735">
    <text x="102" y="102">MỆNH</text><text x="226" y="102">QUAN</text><text x="352" y="102">NÔ</text><text x="478" y="102">DI</text>
    <text x="104" y="183">PHÚC</text><text x="478" y="183">TẬT</text>
    <text x="104" y="262">PHỤ</text><text x="478" y="262">TÀI</text>
    <text x="102" y="340">HUYNH</text><text x="226" y="340">PHỐI</text><text x="352" y="340">TỬ</text><text x="478" y="340">ĐIỀN</text>
  </g>
  <g fill="#EF8A24">
    <circle cx="104" cy="118" r="5"/><circle cx="230" cy="118" r="5"/><circle cx="356" cy="118" r="5"/><circle cx="482" cy="118" r="5"/>
    <circle cx="104" cy="278" r="5"/><circle cx="230" cy="356" r="5"/><circle cx="356" cy="356" r="5"/><circle cx="482" cy="278" r="5"/>
  </g>
</svg>
